<?xml version="1.0" encoding="utf-8"?>
<!-- Generator: Adobe Illustrator 17.1.0, SVG Export Plug-In . SVG Version: 6.00 Build 0)  -->
<!DOCTYPE svg PUBLIC "-//W3C//DTD SVG 1.1//EN" "http://www.w3.org/Graphics/SVG/1.1/DTD/svg11.dtd">
<svg version="1.1" id="Layer_1" xmlns="http://www.w3.org/2000/svg" xmlns:xlink="http://www.w3.org/1999/xlink" x="0px" y="0px"
	 viewBox="0 0 26 20" enable-background="new 0 0 26 20" xml:space="preserve">
<path fill="#1A8AFF" d="M14.5,1.5c0,0.3,0.1,0.7,0.4,1l6.2,6.1H1.5C0.6,8.6,0,9.2,0,10c0,0.8,0.6,1.4,1.5,1.4h19.7l-6.2,6
	c-0.3,0.3-0.4,0.6-0.4,1c0,0.4,0.1,0.7,0.4,1c0.6,0.6,1.5,0.6,2,0l8.6-8.5c0.1-0.1,0.1-0.2,0.2-0.2c0.3-0.4,0.3-0.9,0.1-1.3
	c-0.1-0.2-0.2-0.3-0.3-0.5l0,0L17,0.4c-0.6-0.6-1.5-0.6-2,0C14.7,0.7,14.5,1.1,14.5,1.5z"/>
</svg>
