<?xml version="1.0" encoding="utf-8"?>
<!-- Generator: Adobe Illustrator 17.1.0, SVG Export Plug-In . SVG Version: 6.00 Build 0)  -->
<!DOCTYPE svg PUBLIC "-//W3C//DTD SVG 1.1//EN" "http://www.w3.org/Graphics/SVG/1.1/DTD/svg11.dtd">
<svg version="1.1" id="Layer_1" xmlns="http://www.w3.org/2000/svg" xmlns:xlink="http://www.w3.org/1999/xlink" x="0px" y="0px"
	 viewBox="0 0 27 25" enable-background="new 0 0 27 25" xml:space="preserve">
<path fill="#1A8AFF" d="M0.9,0C0.4,0,0,0.4,0,0.9c0,0.5,0.4,0.9,0.9,0.9h2.9l3.1,15.2c0.1,0.6,0.5,1,0.9,1h15c0.5,0,0.9-0.4,0.9-0.9
	c0-0.5-0.4-0.9-0.9-0.9H8.5l-0.4-1.9H24c0.4,0,0.8-0.3,0.9-0.7L27,4.3c0.1-0.5-0.3-1.1-0.9-1.1H5.9L5.4,0.7C5.3,0.3,4.9,0,4.5,0H0.9
	z M6.2,5H25l-1.7,7.5H7.8L6.2,5z M11.1,18.7c-1.6,0-3,1.4-3,3.1c0,1.7,1.4,3.1,3,3.1c1.6,0,3-1.4,3-3.1
	C14.1,20.2,12.8,18.7,11.1,18.7z M19.5,18.7c-1.6,0-3,1.4-3,3.1c0,1.7,1.4,3.1,3,3.1c1.6,0,3-1.4,3-3.1
	C22.5,20.2,21.2,18.7,19.5,18.7z M11.1,20.6c0.7,0,1.2,0.5,1.2,1.3c0,0.7-0.5,1.2-1.2,1.2c-0.7,0-1.2-0.5-1.2-1.2
	C9.9,21.2,10.4,20.6,11.1,20.6z M19.5,20.6c0.7,0,1.2,0.5,1.2,1.3c0,0.7-0.5,1.2-1.2,1.2c-0.7,0-1.2-0.5-1.2-1.2
	C18.3,21.2,18.8,20.6,19.5,20.6z"/>
</svg>
