<?xml version="1.0" encoding="utf-8"?>
<!-- Generator: Adobe Illustrator 17.1.0, SVG Export Plug-In . SVG Version: 6.00 Build 0)  -->
<!DOCTYPE svg PUBLIC "-//W3C//DTD SVG 1.1//EN" "http://www.w3.org/Graphics/SVG/1.1/DTD/svg11.dtd">
<svg version="1.1" id="Layer_1" xmlns="http://www.w3.org/2000/svg" xmlns:xlink="http://www.w3.org/1999/xlink" x="0px" y="0px"
	 viewBox="0 0 512 512" enable-background="new 0 0 512 512" xml:space="preserve">
<g>
	<g>
		<path fill="#FF6A1F" d="M256,0C114.8,0,0,114.8,0,256s114.8,256,256,256c141.2,0,256-114.8,256-256S397.1,0,256,0z M256,478.4
			c-122.6,0-222.4-99.8-222.4-222.4c0-122.6,99.8-222.4,222.4-222.4c122.7,0,222.4,99.8,222.4,222.4
			C478.4,378.6,378.6,478.4,256,478.4z"/>
		<path fill="#FF6A1F" d="M251.3,161.2c12.4,0,22.4-10,22.4-22.4s-10-22.4-22.4-22.4c-12.4,0-22.4,10-22.4,22.4
			S238.9,161.2,251.3,161.2z M286.8,357.9h-14v-160c0-9.3-7.5-16.8-16.8-16.8h-30.8c-9.3,0-16.8,7.5-16.8,16.8
			c0,9.3,7.5,16.8,16.8,16.8h14.1v143.2h-14.1c-9.3,0-16.8,7.5-16.8,16.8c0,9.3,7.5,16.8,16.8,16.8h61.7c9.3,0,16.8-7.5,16.8-16.8
			C303.6,365.4,296.1,357.9,286.8,357.9z"/>
	</g>
</g>
</svg>
