<svg width="14" height="14" viewBox="0 0 14 14" fill="none" xmlns="http://www.w3.org/2000/svg">
<path d="M7 0C3.13906 0 0 3.13906 0 7C0 10.8609 3.13906 14 7 14C10.8609 14 14 10.8609 14 7C14 3.13906 10.8582 0 7 0ZM7 13.0813C3.64766 13.0813 0.91875 10.3523 0.91875 7C0.91875 3.64766 3.64766 0.91875 7 0.91875C10.3551 0.91875 13.0813 3.64766 13.0813 7C13.0813 10.3523 10.3523 13.0813 7 13.0813Z" fill="#1B8AFF"/>
<path d="M6.87131 4.40787C7.21037 4.40787 7.48381 4.13443 7.48381 3.79536C7.48381 3.4563 7.21037 3.18286 6.87131 3.18286C6.53224 3.18286 6.2588 3.4563 6.2588 3.79536C6.2588 4.13443 6.53224 4.40787 6.87131 4.40787ZM7.84202 9.7864H7.4592V5.41138C7.4592 5.15709 7.25412 4.95201 6.99982 4.95201H6.15762C5.90332 4.95201 5.69824 5.15709 5.69824 5.41138C5.69824 5.66568 5.90332 5.87076 6.15762 5.87076H6.54318V9.7864H6.15762C5.90332 9.7864 5.69824 9.99148 5.69824 10.2458C5.69824 10.5001 5.90332 10.7052 6.15762 10.7052H7.84476C8.09906 10.7052 8.30414 10.5001 8.30414 10.2458C8.3014 9.99148 8.09632 9.7864 7.84202 9.7864Z" fill="#1B8AFF"/>
</svg>
