<?xml version="1.0" encoding="utf-8"?>
<!-- Generator: Adobe Illustrator 17.1.0, SVG Export Plug-In . SVG Version: 6.00 Build 0)  -->
<!DOCTYPE svg PUBLIC "-//W3C//DTD SVG 1.1//EN" "http://www.w3.org/Graphics/SVG/1.1/DTD/svg11.dtd">
<svg version="1.1" id="Layer_1" xmlns="http://www.w3.org/2000/svg" xmlns:xlink="http://www.w3.org/1999/xlink" x="0px" y="0px"
	 viewBox="150.2 163.1 17.1 10" enable-background="new 150.2 163.1 17.1 10" xml:space="preserve">
<path fill="#1A8AFF" d="M159.5,164.2c-1.9,0-2.5,0-4.4,0c0.1,0.1,0.1,0.1,0.1,0.2c0.9,1.8,1.9,3.5,2.8,5.2c0.2,0.4,0.2,0.6,0.1,1
	c-0.2,0.7-0.6,1.3-1.2,1.7c-1.5,1.1-3.9,1.1-5.4,0c-0.7-0.5-1.2-1.2-1.3-2.1c0-0.2,0.1-0.4,0.1-0.6c0.6-1.2,1.2-2.3,1.9-3.5
	c0.5-0.9,1-1.9,1.5-2.8c0.1-0.2,0.3-0.3,0.5-0.3c2.1,0,2.9,0,4.9,0c0.1,0,0.1,0,0.2,0c0,0,0-0.1,0.1-0.1 M158.1,163.2L158.1,163.2
	c0.1,0.1,0.2,0.1,0.2,0.1c2,0,2.8,0,4.8,0c0.4,0,0.5,0.1,0.7,0.4c1.1,2,2.2,4,3.3,6c0.2,0.4,0.2,0.6,0.1,1c-0.2,0.6-0.5,1.1-0.9,1.5
	c-1.6,1.3-4.5,1.3-6-0.1c-0.5-0.5-0.9-1.1-0.9-1.8c0-0.2,0.1-0.4,0.1-0.5c0.6-1.2,1.3-2.3,1.9-3.5c0.4-0.6,0.6-1.2,1-1.8
	c0.1-0.1,0.1-0.1,0.1-0.2c-1.9,0-2.5,0-4.4,0 M154.3,164.8c-0.9,1.6-1.8,3.3-2.6,4.9c1.8,0,3.5,0,5.3,0
	C156,168,155.2,166.4,154.3,164.8z M166,169.7c-0.9-1.6-1.8-3.3-2.6-4.9c-0.9,1.6-1.8,3.3-2.6,4.9
	C162.5,169.7,164.2,169.7,166,169.7z M151.5,170.7c0.1,0.4,0.4,0.6,0.7,0.9c0.5,0.4,1.1,0.5,1.8,0.6c0.9,0.1,1.8-0.1,2.5-0.6
	c0.3-0.2,0.5-0.5,0.7-0.9C155.2,170.7,153.3,170.7,151.5,170.7z M166.2,170.7c-1.9,0-3.7,0-5.6,0c0.1,0.3,0.3,0.6,0.6,0.8
	c1.2,0.8,3.2,0.8,4.3,0C165.8,171.3,166,171,166.2,170.7z"/>
</svg>
