<?xml version="1.0" encoding="utf-8"?>
<!-- Generator: Adobe Illustrator 17.1.0, SVG Export Plug-In . SVG Version: 6.00 Build 0)  -->
<!DOCTYPE svg PUBLIC "-//W3C//DTD SVG 1.1//EN" "http://www.w3.org/Graphics/SVG/1.1/DTD/svg11.dtd">
<svg version="1.1" id="Layer_1" xmlns="http://www.w3.org/2000/svg" xmlns:xlink="http://www.w3.org/1999/xlink" x="0px" y="0px"
	 viewBox="0 0 16.3 28.8" enable-background="new 0 0 16.3 28.8" xml:space="preserve">
<path fill="#1A8AFF" d="M10.4,0.1C9.9-0.1,9.4,0,9.1,0.5C9,0.7,9,0.9,9,1.1l1.4,7.6l-4,0.9C6.1,9.7,5.8,10,5.8,10.4
	c-0.2,2.1-0.1,2.2,0.3,4.3c0.4,2,1.1,3,2,5C8.3,20,8.6,20.2,9,20.1l4.9-0.7c0.5-0.1,0.8-0.5,0.8-1c-0.1-0.5-0.5-0.8-1-0.8l-4.2,0.6
	c-0.7-1.6-1.3-2.2-1.6-3.9c-0.3-1.7-0.4-1.4-0.3-3.1l4.1-1c0.5-0.1,0.8-0.6,0.7-1.1l-1.6-8.4C10.8,0.5,10.7,0.3,10.4,0.1
	C10.4,0.1,10.4,0.1,10.4,0.1z M7.1,0.8C6.8,0.7,6.6,0.6,6.4,0.7L4.5,1.1l0,0C3.5,1.3,2.6,1.9,2,2.8C0,5.8-0.6,8.4,0.6,14.7
	C1.8,21,4.3,26,7.3,28c0.9,0.6,1.9,0.9,3,0.7l5.3-0.9c0.5-0.1,0.8-0.6,0.7-1c0,0,0,0,0,0l-0.9-5c-0.1-0.5-0.6-0.8-1.1-0.7
	c-0.5,0.1-0.8,0.6-0.7,1.1l0.8,4.1L9.9,27c-0.5,0.1-1,0-1.6-0.4c-2.1-1.4-4.8-6.2-5.9-12.2S2.1,6,3.5,3.9c0.4-0.6,0.9-0.9,1.4-1
	c0,0,0,0,0,0l1.9-0.4c0.5-0.1,0.8-0.6,0.7-1.1C7.4,1.1,7.3,0.9,7.1,0.8z"/>
</svg>
