<?xml version="1.0" encoding="utf-8"?>
<!-- Generator: Adobe Illustrator 17.1.0, SVG Export Plug-In . SVG Version: 6.00 Build 0)  -->
<!DOCTYPE svg PUBLIC "-//W3C//DTD SVG 1.1//EN" "http://www.w3.org/Graphics/SVG/1.1/DTD/svg11.dtd">
<svg version="1.1" id="Layer_1" xmlns="http://www.w3.org/2000/svg" xmlns:xlink="http://www.w3.org/1999/xlink" x="0px" y="0px"
	 viewBox="0 0 16 16" enable-background="new 0 0 16 16" xml:space="preserve">
<path fill="#1A8AFF" d="M12.6,11.1C13.5,9.9,14,8.5,14,6.9C14,3.1,10.9,0,7,0C3.1,0,0,3.1,0,6.9c0,3.8,3.1,6.9,7,6.9
	c1.4,0,2.8-0.4,3.9-1.2c0,0,0,0,0,0l3.1,3c0.2,0.2,0.5,0.3,0.8,0.3c0.3,0,0.6-0.1,0.8-0.3c0.5-0.4,0.5-1.2,0-1.6L12.6,11.1z M7,11.5
	c-2.6,0-4.7-2.1-4.7-4.6c0-2.6,2.1-4.6,4.7-4.6c2.6,0,4.7,2.1,4.7,4.6C11.7,9.5,9.6,11.5,7,11.5z"/>
</svg>
